<?xml version="1.0" encoding="utf-8"?>
<!-- Generator: Adobe Illustrator 22.0.1, SVG Export Plug-In . SVG Version: 6.00 Build 0)  -->
<svg version="1.1" id="Layer_1" xmlns="http://www.w3.org/2000/svg" xmlns:xlink="http://www.w3.org/1999/xlink" x="0px" y="0px"
	 viewBox="0 0 95.4 35.3" style="enable-background:new 0 0 95.4 35.3;" xml:space="preserve">
<path d="M9.8,25.3V10.7H6.5V7.2h16.1c2.2,0,4,3,3.7,5.6c-0.1,3.2-1.9,5.1-4.2,5.1l6.3,11.9c0.9,1.3,1.4,2.1,3.4,2.1h54.7
	c2.4-0.1,4.5-1.7,4.6-4.3v-20c0-2.5-2.2-4.1-4.2-4.1H7.9C5.9,3.5,3.4,5.3,3.4,7v21.5c0,1.4,0.6,3.4,2.2,3.4l14.6,0l2.9,3.5H5.4
	c-2.9-0.2-5.3-2.3-5.4-5V7.2C0,2.9,2.7,0,6.5,0h80.6c4.3,0,8.2,2.5,8.2,7.4l0.1,21c0,3.8-3.5,6.9-5.8,6.9H31c-3.4-0.1-5.8-1.2-7-3.5
	l-6.4-13H15l-0.1-3.5l2.6,0c2-0.1,3.6-0.8,3.6-2.1c0-1.6-1.2-2.7-2.2-2.7l-4.1,0l0.2,14.7l3.1,0.1l0,3.4L6.5,28.6l0-3.4L9.8,25.3z"
	/>
<rect x="32" y="23.8" width="4.8" height="4.6"/>
<rect x="56.3" y="23.8" width="4.8" height="4.6"/>
<rect x="83.3" y="23.8" width="4.8" height="4.6"/>
<polygon points="36.8,15.3 36.8,6.9 56.7,6.9 56.8,15.3 53.1,15.3 53,10.1 49.5,10.1 49.5,25.3 52.3,25.3 52.3,28.4 41.3,28.4 
	41.3,25.3 44.5,25.3 44.2,10.2 40.9,10.2 40.9,15.4 "/>
<path d="M65.7,7.2l14.8,0c2.4,0,5,3.5,5,6.1c0,4.5-3.2,7-4.9,7.1l-6.9,0.1l0-3.3l3.9-0.1c1-0.1,2.2-1.2,2.3-3.8
	c-0.1-1.4-1-3.1-2.3-3.1l-3.8,0l0.1,10.3l0.1,5h3.3l0.1,3H65.7v-3l3.6,0l-0.2-14.9l-3.5,0L65.7,7.2z"/>
</svg>
