<?xml version="1.0" encoding="utf-8"?>
<!-- Generator: Adobe Illustrator 22.0.1, SVG Export Plug-In . SVG Version: 6.00 Build 0)  -->
<svg version="1.1" id="Layer_1" xmlns="http://www.w3.org/2000/svg" xmlns:xlink="http://www.w3.org/1999/xlink" x="0px" y="0px"
	 viewBox="0 0 499.2 499.2" style="enable-background:new 0 0 499.2 499.2;" xml:space="preserve">
<style type="text/css">
	.st0{fill:#DDDDDD;}
	.st1{fill:#FFFFFF;}
	.st2{fill:#F2F2F2;}
	.st3{fill:#FCFCFC;}
</style>
<path class="st0" d="M9.6,229.6c10.4,20.8,29.6,37.6,52.8,44C43.2,319.2,40.8,370.4,60,416c-34.4-10.4-60-42.4-60-80v-68.8
	C0,253.6,4,241.6,9.6,229.6z"/>
<g>
	<path class="st1" d="M85.6,177.6h228c47.2,0,86.4,38.4,86.4,85.6v58.4H168l0,0H85.6c-33.6,0-64,20-77.6,48.8C0.8,356,0,345.6,0,332
		v-68.8C0,216,38.4,177.6,85.6,177.6z"/>
	<path class="st1" d="M314.4,179.2c47.2,0,85.6,37.6,85.6,84.8v57.6H168l0,0H85.6c-33.6,0-64,20-77.6,48.8c-6.4-11.2-8-23.2-8-38.4
		v-66.4"/>
</g>
<polygon class="st2" points="376,249.6 280,153.6 280,30.4 499.2,249.6 280,468.8 280,345.6 "/>
<polyline class="st3" points="497.6,249.6 280,468.8 280,345.6 374.4,249.6 280,153.6 "/>
</svg>
